grf
version=1
nRows=27
nColumns=19
inDegrees=no
endheader
time	ground_force_1_vx	ground_force_1_vy	ground_force_1_vz	ground_force_1_px	ground_force_1_py	ground_force_1_pz	ground_moment_1_mx	ground_moment_1_my	ground_moment_1_mz	ground_force_2_vx	ground_force_2_vy	ground_force_2_vz	ground_force_2_px	ground_force_2_py	ground_force_2_pz	ground_moment_2_mx	ground_moment_2_my	ground_moment_2_mz
     10.54000000	      2.64120531	   1284.02014160	   -123.70539856	    145.88869665	      0.00000000	  -1050.17085507	     -0.00000000	  19349.04232516	      0.00000000	     36.31010056	   1282.38452148	    134.71144104	    145.88036856	      0.00000000	  -1390.83863146	      0.00000000	 -19957.77912099	      0.00000000
     10.55000000	      4.13596630	   1285.13867188	   -124.99302673	    146.42393210	      0.00000000	  -1049.08340179	      0.00000000	  19539.53706496	      0.00000000	     35.18367004	   1272.03271484	    134.79090881	    145.92209562	      0.00000000	  -1390.55934729	      0.00000000	 -19702.13756235	      0.00000000
     10.56000000	      3.56873608	   1293.62573242	   -125.99832916	    147.30169736	      0.00000000	  -1048.54226063	      0.00000000	  19384.54652480	      0.00000000	     35.30335236	   1278.12121582	    134.66979980	    147.53084586	      0.00000000	  -1391.57528450	      0.00000000	 -19535.79147473	      0.00000000
     10.57000000	      5.68238211	   1288.98547363	   -127.32659149	    146.52183815	      0.00000000	  -1049.62811291	      0.00000000	  19317.63912314	      0.00000000	     34.65813828	   1263.96752930	    134.46719360	    147.99093552	      0.00000000	  -1390.36582013	     -0.00000000	 -19443.55682511	      0.00000000
     10.58000000	      2.66707039	   1303.70532227	   -129.78813171	    147.24824309	      0.00000000	  -1049.53172963	      0.00000000	  18410.52026175	      0.00000000	     33.12862396	   1263.83044434	    133.13787842	    149.33391424	      0.00000000	  -1391.28155460	     -0.00000000	 -18808.10820636	      0.00000000
     10.59000000	      5.08822107	   1308.18115234	   -131.52296448	    147.78063997	      0.00000000	  -1048.61457642	      0.00000000	  19060.72419769	      0.00000000	     30.75069809	   1261.48083496	    132.81639099	    150.76939977	      0.00000000	  -1392.58958544	      0.00000000	 -18717.55761346	      0.00000000
     10.60000000	      4.56960392	   1318.11132812	   -133.85746765	    148.21147473	      0.00000000	  -1048.21414566	      0.00000000	  18681.17749762	      0.00000000	     26.44030952	   1250.20129395	    133.90188599	    150.90840398	      0.00000000	  -1389.52967789	      0.00000000	 -18816.92693843	      0.00000000
     10.61000000	      4.72906113	   1309.13037109	   -133.97608948	    148.77328350	      0.00000000	  -1048.60960729	     -0.00000000	  18639.45648030	      0.00000000	     24.06307030	   1245.59631348	    134.18299866	    152.00082324	      0.00000000	  -1390.03136244	      0.00000000	 -18691.14527688	      0.00000000
     10.62000000	      7.51089287	   1287.17272949	   -135.13058472	    150.58655926	      0.00000000	  -1047.53621896	      0.00000000	  18583.23661136	      0.00000000	     23.37906647	   1261.88537598	    135.10804749	    154.77845805	      0.00000000	  -1391.92247560	      0.00000000	 -18233.96508364	     -0.00000000
     10.63000000	      7.70869255	   1278.98217773	   -131.53927612	    151.67554588	      0.00000000	  -1047.44357190	      0.00000000	  18215.41183221	      0.00000000	     24.14396667	   1254.41943359	    136.99769592	    154.91792748	      0.00000000	  -1391.51586267	      0.00000000	 -18334.11323855	      0.00000000
     10.64000000	     10.00188065	   1257.68835449	   -127.74945831	    152.06222853	      0.00000000	  -1047.08688299	      0.00000000	  18626.02670445	      0.00000000	     23.21921539	   1247.11474609	    136.27195740	    155.78295595	      0.00000000	  -1390.32580495	      0.00000000	 -17830.28870847	      0.00000000
     10.65000000	      7.24964428	   1254.33227539	   -126.37355042	    152.30280251	      0.00000000	  -1046.22271658	      0.00000000	  18027.92539358	      0.00000000	     22.97846794	   1253.67211914	    135.54833984	    157.39215454	      0.00000000	  -1393.64880008	      0.00000000	 -17411.38225267	      0.00000000
     10.66000000	      1.93117952	   1250.13513184	   -126.45130920	    153.35430307	      0.00000000	  -1048.08580850	      0.00000000	  18033.78566694	      0.00000000	     20.84501266	   1256.55151367	    135.10498047	    158.01788871	      0.00000000	  -1393.14149842	      0.00000000	 -17046.46584304	      0.00000000
     10.67000000	      4.73507214	   1245.95141602	   -126.73012543	    154.50848580	      0.00000000	  -1047.55140889	      0.00000000	  17533.73932916	      0.00000000	     21.93154907	   1258.95092773	    134.86328125	    158.27603355	      0.00000000	  -1393.41685427	      0.00000000	 -17086.23846306	      0.00000000
     10.68000000	      6.35513115	   1251.70178223	   -128.65875244	    155.60722138	      0.00000000	  -1047.44774794	      0.00000000	  17369.00768258	      0.00000000	     20.12028694	   1255.30126953	    137.59892273	    159.07533740	      0.00000000	  -1392.96644018	      0.00000000	 -17033.73588790	      0.00000000
     10.69000000	      7.33127499	   1238.41186523	   -128.89318848	    156.05454616	      0.00000000	  -1047.81394865	      0.00000000	  16905.71023611	      0.00000000	     15.37077904	   1260.26940918	    138.24148560	    160.19386320	      0.00000000	  -1393.76786551	      0.00000000	 -16359.12132037	     -0.00000000
     10.70000000	      7.77130413	   1224.76416016	   -129.93469238	    157.20036912	      0.00000000	  -1048.26471136	      0.00000000	  16822.77200778	      0.00000000	     11.74591255	   1266.97265625	    141.29895020	    160.59974032	      0.00000000	  -1394.36948465	      0.00000000	 -16462.67580728	      0.00000000
     10.71000000	      8.65744877	   1230.38500977	   -128.88406372	    157.59907226	      0.00000000	  -1046.04542690	      0.00000000	  16829.88140224	      0.00000000	     10.77919579	   1263.62255859	    142.82830811	    160.02043282	      0.00000000	  -1392.03524635	      0.00000000	 -16738.44119017	      0.00000000
     10.72000000	      8.61910629	   1231.67041016	   -127.79282379	    157.92130171	      0.00000000	  -1044.98540186	      0.00000000	  16489.31540560	      0.00000000	     12.30898857	   1272.23876953	    142.30644226	    161.16061354	      0.00000000	  -1394.52498556	      0.00000000	 -16721.38573758	     -0.00000000
     10.73000000	     11.32425117	   1226.70043945	   -125.52999878	    158.59365147	      0.00000000	  -1045.58450294	      0.00000000	  16531.04656251	      0.00000000	     13.39510918	   1273.36474609	    141.53970337	    161.97209151	      0.00000000	  -1394.53787544	      0.00000000	 -16506.49965773	      0.00000000
     10.74000000	     10.63134289	   1214.17968750	   -125.64253998	    160.86092379	      0.00000000	  -1044.24626816	      0.00000000	  16041.60168933	      0.00000000	     10.21432495	   1266.72338867	    139.32698059	    163.76304322	      0.00000000	  -1396.12027004	      0.00000000	 -15883.94316048	      0.00000000
     10.75000000	      8.71587658	   1200.20605469	   -127.00465393	    164.02713952	      0.00000000	  -1044.17093480	      0.00000000	  15785.91283267	      0.00000000	      6.71120834	   1259.12902832	    137.07440186	    166.05304197	      0.00000000	  -1394.58781855	      0.00000000	 -15273.25437049	      0.00000000
     10.76000000	      1.81113124	   1183.36767578	   -122.64411163	    165.98131138	      0.00000000	  -1045.24333763	      0.00000000	  15433.28568436	      0.00000000	      4.09060287	   1279.52441406	    137.51733398	    166.37947397	      0.00000000	  -1395.07743432	      0.00000000	 -15554.28773712	      0.00000000
     10.77000000	     -1.11121345	   1208.43981934	   -124.58490753	    169.79297370	      0.00000000	  -1043.70309638	      0.00000000	  15432.29797943	      0.00000000	      2.11631393	   1265.88623047	    139.04287720	    168.93041372	      0.00000000	  -1395.37460324	      0.00000000	 -15070.68863390	      0.00000000
     10.78000000	     -5.32024860	   1223.28784180	   -122.96402740	    172.45674819	      0.00000000	  -1042.84327076	      0.00000000	  14308.44918798	      0.00000000	      0.38608360	   1272.30480957	    142.17832947	    170.73487185	      0.00000000	  -1396.88155886	      0.00000000	 -14582.21647324	      0.00000000
     10.79000000	     -8.60593605	   1211.92626953	   -125.29478455	    173.16410998	      0.00000000	  -1044.74090088	      0.00000000	  14080.71492099	      0.00000000	     -2.47389030	   1250.85742188	    144.06478882	    173.22318858	      0.00000000	  -1395.98511607	      0.00000000	 -13948.64021327	      0.00000000
     10.80000000	     -8.56607246	   1212.99243164	   -126.05230713	    176.74918865	      0.00000000	  -1040.73004903	      0.00000000	  13389.08723661	      0.00000000	     -4.97494888	   1246.76428223	    142.21319580	    175.18435764	      0.00000000	  -1397.27785039	      0.00000000	 -13877.22382175	      0.00000000
